<?xml version="1.0" encoding="UTF-8" standalone="no"?>
<svg viewBox="0 0 380.19705 341.7471" xmlns="http://www.w3.org/2000/svg">
<title>agenda</title>
<g transform="translate(-151.06263,-365.03156)">
<path d="m155.31466,512.5316c-2.69095,4.35994-6.96811,7.09815 2.06614,14.04645l111.55802,83.44915 129.58588-165.03751-112.33901-75.44119z" fill="#fff" stroke="#000" stroke-linecap="round" stroke-linejoin="round" stroke-width="1.701"/>
<path d="m159.04228,507.35237 .41324,8.92497c-.4257,1.83204.97753,3.43634 3.28322,4.8837l110.23719,83.52857 124.28461-159.08492-112.79521-77.22425z" fill="#fff" stroke="#000" stroke-linecap="round" stroke-linejoin="round" stroke-width="1.35061"/>
<path d="m269.00288,609.97617 119.59712,92.55878c5.55476,4.737 12.53144,4.68791 18.40969-1.24734l119.03979-152.0518c4.94987-6.13544 7.14999-10.68063-1.45269-14.93878l-123.27876-80.45752z" fill="#fff" stroke="#000" stroke-linecap="round" stroke-linejoin="round" stroke-width="1.701"/>
<path d="m394.42563,683.40851 2.9095,14.65586 124.6422-155.88044c1.7634-2.06983 3.2267-3.60339 2.3081-6.59824l-.33949-14.40285z" fill="#fff" stroke="#333" stroke-dashoffset="1.5" stroke-linecap="round" stroke-linejoin="round" stroke-width="1.35061"/>
<path d="m272.03703,593.11969 .7857,10.47239 121.2673,92.15973c3.9468,3.97867 3.6146,1.71542 3.0832-.74908l-1.75-12.27633z" fill="#fff" stroke="#000" stroke-dashoffset="1.5" stroke-linecap="round" stroke-linejoin="round" stroke-width="1.35061"/>
<path d="m270.87253,592.48716c42.5976,31.09256 72.5054,54.67829 117.0946,85.99251 5.8033,4.67401 9.6757,2.37119 12.6093-1.23212l119.1251-149.37574c3.6463-4.0487 6.4457-6.63571.9616-8.96801-40.7946-24.81985-66.75546-54.43663-117.69795-76.38967z" fill="#fff" stroke="#000" stroke-linecap="round" stroke-linejoin="round" stroke-width="1.726"/>
<path d="m162.50076,509.68489c39.46342,32.71483 69.2082,51.79409 108.71237,83.73151l132.4808-150.15281c-2.81109-10.71595-71.879-47.23707-108.4042-74.663-5.1736-4.61364-11.7218-2.52264-13.2028.3238l-120.2184,130.85745c-3.88605,5.23538-2.12252,7.22224.63223,9.90305z" fill="#fff" stroke="#000" stroke-linecap="round" stroke-linejoin="round" stroke-width="1.726"/>
<path d="m395.87881,479.10219 10.691-12.63483 13.12078,8.74719-10.69101,13.60673z" fill="#fff" stroke="#333"/>
<path d="m414.90808,491.62794 10.27086-12.05115 77.49828,52.83964-11.20459,12.97815z" fill="#fff" stroke="#333" stroke-width=".91831"/>
<path d="m322.17884,560.23097 98.39692,70.39118" fill="#f00" stroke="#333" stroke-dashoffset="3.003" stroke-linecap="round" stroke-linejoin="round"/>
<path d="m377.11634,495.09069 97.61222,68.03671" fill="#f00" stroke="#333" stroke-dashoffset="3.003" stroke-linecap="round" stroke-linejoin="round"/>
<path d="m385.64981,486.26041 98.00659,68.03879" fill="#f00" stroke="#333" stroke-dashoffset="3.003" stroke-linecap="round" stroke-linejoin="round"/>
<path d="m369.66054,506.47062 96.43492,66.85948" fill="#f00" stroke="#333" stroke-dashoffset="3.003" stroke-linecap="round" stroke-linejoin="round"/>
<path d="m360.63514,517.85055 97.61212,66.46706" fill="#f00" stroke="#333" stroke-dashoffset="3.003" stroke-linecap="round" stroke-linejoin="round"/>
<path d="m351.60964,527.66084 97.61222,67.6443" fill="#f00" stroke="#333" stroke-dashoffset="3.003" stroke-linecap="round" stroke-linejoin="round"/>
<path d="m342.19184,538.25593 98.00452,69.41016" fill="#f00" stroke="#333" stroke-dashoffset="3.003" stroke-linecap="round" stroke-linejoin="round"/>
<path d="m331.98904,548.06622 98.39702,71.176" fill="#f00" stroke="#333" stroke-dashoffset="3.003" stroke-linecap="round" stroke-linejoin="round"/>
<path d="m313.54574,572.78813 98.39702,70.39118" fill="#f00" stroke="#333" stroke-dashoffset="3.003" stroke-linecap="round" stroke-linejoin="round"/>
<path d="m302.95064,586.13011 98.39702,70.39118" fill="#f00" stroke="#333" stroke-dashoffset="3.003" stroke-linecap="round" stroke-linejoin="round"/>
<path d="m271.08132,396.38226 9.91288-11.6173 12.16581,8.04274-9.91289,12.51094z" fill="#fff" stroke="#333" stroke-width=".92333"/>
<path d="m287.53952,408.28237 10.57587-11.85632 79.7997,51.98543-11.53732,12.76835z" fill="#fff" stroke="#333" stroke-width=".92428"/>
<g stroke="#333" transform="matrix(.94688,0,0,.93628,-106.19219,-41.72841)">
<path d="m321.73883,552.99153 100.21142,70.75819" fill="#f00" stroke="#333" stroke-dashoffset="3.003" stroke-linecap="round" stroke-linejoin="round"/>
<path d="m378.49083,488.21826 97.61222,68.03671" fill="#f00" stroke="#333" stroke-dashoffset="3.003" stroke-linecap="round" stroke-linejoin="round"/>
<path d="m386.33706,478.01349 98.00659,68.03879" fill="#f00" stroke="#333" stroke-dashoffset="3.003" stroke-linecap="round" stroke-linejoin="round"/>
<path d="m371.03503,499.59819 96.43492,66.85948" fill="#f00" stroke="#333" stroke-dashoffset="3.003" stroke-linecap="round" stroke-linejoin="round"/>
<path d="m362.00963,510.97812 97.61212,66.46706" fill="#f00" stroke="#333" stroke-dashoffset="3.003" stroke-linecap="round" stroke-linejoin="round"/>
<path d="m352.98413,520.78841 97.61222,67.6443" fill="#f00" stroke="#333" stroke-dashoffset="3.003" stroke-linecap="round" stroke-linejoin="round"/>
<path d="m343.56633,531.3835 98.00452,69.41016" fill="#f00" stroke="#333" stroke-dashoffset="3.003" stroke-linecap="round" stroke-linejoin="round"/>
<path d="m331.54903,541.19379 100.21152,71.176" fill="#f00" stroke="#333" stroke-dashoffset="3.003" stroke-linecap="round" stroke-linejoin="round"/>
<path d="m312.01703,565.18168 101.30022,71.1252" fill="#f00" stroke="#333" stroke-dashoffset="3.003" stroke-linecap="round" stroke-linejoin="round"/>
<path d="m302.51063,576.3216 100.21152,73.32726" fill="#f00" stroke="#333" stroke-dashoffset="3.003" stroke-linecap="round" stroke-linejoin="round"/>
</g>
<path d="m383.32566,497.04409 4.67725-5.48145 5.74025,3.79485-4.67725,5.9031z" fill="#fff" stroke="#333" stroke-width=".736"/>
<path d="m374.96378,506.17659 4.67725-5.48145 5.74025,3.79485-4.67725,5.9031z" fill="#fff" stroke="#333" stroke-width=".736"/>
<path d="m366.6019,516.6663 4.67725-5.48145 5.74025,3.79485-4.67725,5.9031z" fill="#fff" stroke="#333" stroke-width=".736"/>
<path d="m357.79577,526.58668 4.67725-5.48145 5.74025,3.79485-4.67725,5.9031z" fill="#fff" stroke="#333" stroke-width=".736"/>
<path d="m347.69137,537.70469 4.67725-5.48145 5.74025,3.79485-4.67725,5.9031z" fill="#fff" stroke="#333" stroke-width=".736"/>
<path d="m338.88524,548.21166 4.67725-5.48145 5.74025,3.79485-4.67725,5.9031z" fill="#fff" stroke="#333" stroke-width=".736"/>
<path d="m328.23592,559.53095 4.67725-5.48145 5.74025,3.79485-4.67725,5.9031z" fill="#fff" stroke="#333" stroke-width=".736"/>
<path d="m319.14512,567.16389 4.67725-5.48145 5.74025,3.79485-4.67725,5.9031z" fill="#fff" stroke="#333" stroke-width=".736"/>
<path d="m310.59923,577.6536 4.67725-5.48145 5.74025,3.79485-4.67725,5.9031z" fill="#fff" stroke="#333" stroke-width=".736"/>
<path d="m411.64618,446.96155c-39.35293,62.73145-76.56803,108.02096-117.51153,165.3478-5.43849,6.68469-9.09269,16.61895-7.93554,25.36435l-9.49335-4.46354c-1.13337-9.36354 3.30204-19.29876 8.82343-25.9074 45.37243-58.46745 81.48598-104.63656 118.02744-165.53882 4.74653-.68529 7.37693,2.12304 8.08955,5.19761z" fill="#fff" stroke="#000" stroke-dashoffset="3.003" stroke-linecap="round" stroke-linejoin="round"/>
<path d="m254.46747,413.8876 4.67725-5.48145 5.74025,3.79485-4.67725,5.9031z" fill="#fff" stroke="#333" stroke-width=".736"/>
<path d="m246.20624,423.06179 4.67725-5.48145 5.74025,3.79485-4.67725,5.9031z" fill="#fff" stroke="#333" stroke-width=".736"/>
<path d="m237.25776,432.78088 4.67725-5.48145 5.74025,3.79485-4.67725,5.9031z" fill="#fff" stroke="#333" stroke-width=".736"/>
<path d="m228.45163,443.18721 4.67725-5.48145 5.74025,3.79485-4.67725,5.9031z" fill="#fff" stroke="#333" stroke-width=".736"/>
<path d="m220.04807,452.3614 4.67725-5.48145 5.74025,3.79485-4.67725,5.9031z" fill="#fff" stroke="#333" stroke-width=".736"/>
<path d="m210.27003,462.6254 4.67725-5.48145 5.74025,3.79485-4.67725,5.9031z" fill="#fff" stroke="#333" stroke-width=".736"/>
<path d="m200.34964,472.97278 4.67725-5.48145 5.74025,3.79485-4.67725,5.9031z" fill="#fff" stroke="#333" stroke-width=".736"/>
<path d="m190.28693,484.0074 4.67725-5.48145 5.74025,3.79485-4.67725,5.9031z" fill="#fff" stroke="#333" stroke-width=".736"/>
<path d="m181.74104,494.49711 4.67725-5.48145 5.74025,3.79485-4.67725,5.9031z" fill="#fff" stroke="#333" stroke-width=".736"/>
</g>
</svg>
